<svg version="1.1" id="Layer_1" xmlns="http://www.w3.org/2000/svg" xmlns:xlink="http://www.w3.org/1999/xlink" x="0px" y="0px"
	 width="100%" viewBox="0 0 323 236" enable-background="new 0 0 323 236" xml:space="preserve">
<path fill="#010001" opacity="1.000000" stroke="none" 
	d="
M179.000000,237.000000 
	C119.333344,237.000000 60.166679,237.000000 1.000016,237.000000 
	C1.000011,158.333344 1.000011,79.666702 1.000005,1.000037 
	C108.666634,1.000025 216.333267,1.000025 323.999939,1.000012 
	C323.999939,79.666626 323.999939,158.333252 323.999969,236.999939 
	C275.833344,237.000000 227.666672,237.000000 179.000000,237.000000 
M68.391037,52.138065 
	C60.222519,52.229607 52.054005,52.321148 42.915752,52.423557 
	C44.108082,54.327423 44.413963,54.897045 44.794388,55.411552 
	C58.550568,74.016281 72.550949,92.446411 85.997231,111.272339 
	C95.906776,125.146538 107.304016,137.234589 121.938690,146.171371 
	C141.383896,158.045746 162.371475,166.521790 183.593689,174.502563 
	C184.455231,174.826569 185.451050,174.793533 186.997864,175.014496 
	C186.766388,173.000824 186.696640,171.392807 186.384705,169.833252 
	C182.759064,151.706451 172.819702,137.069687 160.614151,123.765350 
	C144.372467,106.061562 125.082024,92.122017 104.991173,79.200142 
	C103.341911,78.139397 101.722008,77.032982 100.088470,75.947784 
	C100.375633,75.581299 100.662796,75.214813 100.949951,74.848328 
	C138.041687,87.883675 166.411072,112.284203 189.483490,144.980850 
	C189.820526,142.958420 190.014267,142.338654 190.008804,141.720657 
	C189.995544,140.222763 189.992477,138.712708 189.805725,137.230179 
	C185.650558,104.245811 168.250900,80.919708 138.289078,66.839798 
	C116.466095,56.584564 93.144226,53.257931 68.391037,52.138065 
M240.400879,124.898956 
	C243.749832,118.584999 247.423111,112.418915 250.382782,105.927467 
	C257.356171,90.632866 263.990814,75.183792 270.755371,59.794098 
	C271.076477,59.063595 271.329437,58.303154 271.815094,57.029675 
	C270.257416,57.029675 269.132874,56.856323 268.078674,57.055408 
	C249.136215,60.632656 230.834198,66.036682 214.235428,76.203514 
	C204.448502,82.198067 196.004745,89.641724 189.731735,99.346161 
	C188.858200,100.697525 187.547760,102.608620 187.925064,103.783577 
	C189.757660,109.490387 192.096283,115.034706 194.574066,121.462509 
	C204.362625,106.377350 215.534470,94.085884 230.285568,85.431335 
	C229.763092,87.363846 228.539291,88.629211 227.458618,90.006828 
	C218.222305,101.780785 208.986847,113.555603 199.808990,125.375107 
	C197.032486,128.950775 196.296494,132.920441 196.851212,137.543015 
	C197.754288,145.068512 197.919159,152.682602 198.478027,161.570648 
	C214.252426,150.637085 228.925278,140.196411 240.400879,124.898956 
z"/>
<path fill="#028F29" opacity="1.000000" stroke="none" 
	d="
M68.874527,52.152817 
	C93.144226,53.257931 116.466095,56.584564 138.289078,66.839798 
	C168.250900,80.919708 185.650558,104.245811 189.805725,137.230179 
	C189.992477,138.712708 189.995544,140.222763 190.008804,141.720657 
	C190.014267,142.338654 189.820526,142.958420 189.483490,144.980850 
	C166.411072,112.284203 138.041687,87.883675 100.949951,74.848328 
	C100.662796,75.214813 100.375633,75.581299 100.088470,75.947784 
	C101.722008,77.032982 103.341911,78.139397 104.991173,79.200142 
	C125.082024,92.122017 144.372467,106.061562 160.614151,123.765350 
	C172.819702,137.069687 182.759064,151.706451 186.384705,169.833252 
	C186.696640,171.392807 186.766388,173.000824 186.997864,175.014496 
	C185.451050,174.793533 184.455231,174.826569 183.593689,174.502563 
	C162.371475,166.521790 141.383896,158.045746 121.938690,146.171371 
	C107.304016,137.234589 95.906776,125.146538 85.997231,111.272339 
	C72.550949,92.446411 58.550568,74.016281 44.794388,55.411552 
	C44.413963,54.897045 44.108082,54.327423 42.915752,52.423557 
	C52.054005,52.321148 60.222519,52.229607 68.874527,52.152817 
z"/>
<path fill="#028E28" opacity="1.000000" stroke="none" 
	d="
M240.200989,125.196136 
	C228.925278,140.196411 214.252426,150.637085 198.478027,161.570648 
	C197.919159,152.682602 197.754288,145.068512 196.851212,137.543015 
	C196.296494,132.920441 197.032486,128.950775 199.808990,125.375107 
	C208.986847,113.555603 218.222305,101.780785 227.458618,90.006828 
	C228.539291,88.629211 229.763092,87.363846 230.285568,85.431335 
	C215.534470,94.085884 204.362625,106.377350 194.574066,121.462509 
	C192.096283,115.034706 189.757660,109.490387 187.925064,103.783577 
	C187.547760,102.608620 188.858200,100.697525 189.731735,99.346161 
	C196.004745,89.641724 204.448502,82.198067 214.235428,76.203514 
	C230.834198,66.036682 249.136215,60.632656 268.078674,57.055408 
	C269.132874,56.856323 270.257416,57.029675 271.815094,57.029675 
	C271.329437,58.303154 271.076477,59.063595 270.755371,59.794098 
	C263.990814,75.183792 257.356171,90.632866 250.382782,105.927467 
	C247.423111,112.418915 243.749832,118.584999 240.200989,125.196136 
z"/>
</svg>