<?xml version="1.0" encoding="UTF-8"?>
<svg version="1.1" xmlns="http://www.w3.org/2000/svg" width="225" height="225">
<path d="M0 0 C74.25 0 148.5 0 225 0 C225 74.25 225 148.5 225 225 C150.75 225 76.5 225 0 225 C0 150.75 0 76.5 0 0 Z " fill="#FEFEFE" transform="translate(0,0)"/>
<path d="M0 0 C-4.12606791 32.66108495 -17.36009181 72.29571319 -43.375 93.8125 C-63.61261142 108.59082449 -89.53066433 105.91415254 -113 103 C-112.42875185 97.8185379 -110.76709558 93.83245155 -108.4375 89.25 C-108.07962402 88.54552734 -107.72174805 87.84105469 -107.35302734 87.11523438 C-99.68262072 72.45309924 -88.87794306 63.84996206 -74 57 C-72.66401421 56.33866484 -71.32953124 55.67421726 -70 55 C-70 53.02 -70 51.04 -70 49 C-75.49315705 47.4390563 -78.9141555 48.85934702 -83.75 51.4375 C-84.45447266 51.80367432 -85.15894531 52.16984863 -85.88476562 52.54711914 C-99.21156739 59.67927898 -108.42355828 69.50175441 -115.65234375 82.69140625 C-116.09707031 83.45324219 -116.54179688 84.21507812 -117 85 C-117.33 85 -117.66 85 -118 85 C-119.45390472 62.0606144 -114.44897608 36.29633658 -100 18 C-99.48050781 17.33742188 -98.96101563 16.67484375 -98.42578125 15.9921875 C-91.52282742 8.23723181 -80.06022311 2.26922326 -70 0 C-68.23462891 -0.41378906 -68.23462891 -0.41378906 -66.43359375 -0.8359375 C-46.67318394 -4.99453821 -19.39952501 -6.46650834 0 0 Z " fill="#033514" transform="translate(199,55)"/>
<path d="M0 0 C9.39365534 0.72665407 16.53742854 3.95237631 23.01953125 10.88671875 C33.27421326 24.59113249 35.15456468 40.85069844 37.08789062 57.375 C38.68313596 71.83738298 38.68313596 71.83738298 46.15234375 83.77734375 C47.71875 85.3515625 47.71875 85.3515625 48.71484375 87.15234375 C48.32614675 90.75710907 47.18772943 93.85493752 45.71484375 97.15234375 C37.96357602 93.12764704 34.00856813 88.20008032 30.71484375 80.15234375 C27.80204904 70.51634712 26.41890852 60.58067966 24.98803711 50.64306641 C23.23841373 38.5940228 21.29258469 25.44160237 12.71484375 16.15234375 C10.18299445 14.35588636 7.62207088 13.21543427 4.71484375 12.15234375 C3.98265625 11.8790625 3.25046875 11.60578125 2.49609375 11.32421875 C1.78453125 11.06125 1.07296875 10.79828125 0.33984375 10.52734375 C-3.28515625 9.15234375 -3.28515625 9.15234375 -5.28515625 7.15234375 C-4.89679029 3.26868412 -4.41691201 0.2944608 0 0 Z " fill="#063514" transform="translate(30.28515625,57.84765625)"/>
<path d="M0 0 C4.01415698 1.19510803 5.15319364 3.04558327 7.23046875 6.6640625 C7.78310197 10.60157417 7.5926765 12.84909506 5.98046875 16.4765625 C3.17124887 19.98808735 1.29725364 20.52577557 -3.14453125 21.1015625 C-6.80674332 20.65957139 -8.89060574 19.90970189 -11.59765625 17.35546875 C-13.87323045 14.07105666 -14.20934204 10.57270357 -13.76953125 6.6640625 C-10.20838302 0.68642083 -6.64480953 -0.9322245 0 0 Z " fill="#073716" transform="translate(144.76953125,169.3359375)"/>
<path d="M0 0 C2.97672584 1.77280561 5.42804007 3.85608015 7 7 C7.17157511 10.79703187 7.02377702 14.49708155 4.83984375 17.703125 C2.21329584 20.14056146 -0.00480352 21.00085777 -3.5 21.625 C-6.99507386 21.00087967 -9.22142981 20.15699247 -11.82421875 17.6875 C-14.12771964 14.38147878 -14.55417427 10.94156448 -14 7 C-10.73575011 0.86678048 -6.71163625 -0.67116362 0 0 Z " fill="#073615" transform="translate(80,169)"/>
<path d="M0 0 C0 3 0 3 -2.1875 5.48046875 C-3.115625 6.37378906 -4.04375 7.26710938 -5 8.1875 C-5.928125 9.08855469 -6.85625 9.98960938 -7.8125 10.91796875 C-8.534375 11.60503906 -9.25625 12.29210937 -10 13 C-10.66 12.67 -11.32 12.34 -12 12 C-10.56665422 10.37133456 -9.12817021 8.74719006 -7.6875 7.125 C-6.88699219 6.22007813 -6.08648437 5.31515625 -5.26171875 4.3828125 C-3 2 -3 2 0 0 Z " fill="#103919" transform="translate(108,65)"/>
<path d="M0 0 C0.66 0.33 1.32 0.66 2 1 C-0.97 3.97 -3.94 6.94 -7 10 C-7.66 9.67 -8.32 9.34 -9 9 C-6.21000549 5.51250686 -3.74764169 2.49842779 0 0 Z " fill="#183E20" transform="translate(108,122)"/>
<path d="M0 0 C0.66 0.66 1.32 1.32 2 2 C1.34 2.66 0.68 3.32 0 4 C-0.69748583 5.31747324 -1.36959957 6.64914193 -2 8 C-2.6875 5.6875 -2.6875 5.6875 -3 3 C-1.5625 1.1875 -1.5625 1.1875 0 0 Z " fill="#224728" transform="translate(28,58)"/>
</svg>
